<?xml version="1.0" encoding="utf-8"?>
<!DOCTYPE svg PUBLIC "-//W3C//DTD SVG 1.1//EN" "http://www.w3.org/Graphics/SVG/1.1/DTD/svg11.dtd">
<svg version="1.1" xmlns="http://www.w3.org/2000/svg" xmlns:xlink="http://www.w3.org/1999/xlink" x="0px" y="0px" width="800px"
	 height="400px" viewBox="0 0 800 400" enable-background="new 0 0 800 400" xml:space="preserve">
<g id="Calque_4">
	<g>
		<path fill="#231F20" d="M448.986,248.021c-0.419-8.922-7.406-16.209-16.35-16.209c-8.944,0-16.631,7.092-16.643,19.246
			c-0.016,15.063,7.699,20.134,16.643,20.134c5.806,0.253,8.835-0.839,12.863-2.234c1.429-0.52,2.168-2.104,1.648-3.533
			s-2.104-2.168-3.533-1.648c-2.853,0.912-9.168,3.21-15.065,0.849c-4.936-1.976-5.306-6.908-5.676-11.84c7.849,0,15.698,0,23.546,0
			C447.923,252.778,449.189,252.347,448.986,248.021z M422.849,248.021c0-5.4,3.537-11.019,9.786-11.019
			c6.249,0,9.786,5.619,9.786,11.019C435.897,248.021,429.373,248.021,422.849,248.021z"/>
		<path fill="#231F20" d="M395.361,271.186c6.608,0.032,13.487-3.073,13.729-11.313s-7.758-10.019-12.382-11.895
			c-4.623-1.876-6.544-4.187-5.572-7.297c0.972-3.11,3.254-3.224,5.069-3.263c4.833-0.102,6.118,0.892,7.507,1.446
			c1.429,0.52,3.013-0.218,3.533-1.648c0.52-1.429-0.218-3.013-1.648-3.533c-1.447-0.667-2.721-1.55-7.617-1.783
			c-2.753-0.149-11.165,0.488-12.883,7.74c-1.718,7.252,2.088,10.806,8.578,13.438c3.708,1.503,9.018,2.734,8.981,7.099
			c-0.032,3.778-2.487,5.263-6.305,5.475c-5.062,0.281-7.203-1.12-8.94-1.956c-1.429-0.52-3.013,0.218-3.533,1.648
			c-0.52,1.429,0.218,3.013,1.647,3.533C386.872,269.619,389.662,271.159,395.361,271.186z"/>
		<path fill="#231F20" d="M499.111,221.88c-1.715,0.624-2.601,2.525-1.977,4.24c0.624,1.715,2.525,2.601,4.24,1.977
			c4.094-1.503,8.051-5.72,13.836-2.529c3.287,1.813,4.191,9.039,0.812,12.753c-3.184,3.499-9.961,3.138-12.329,3.134
			c-1.521,0-2.757,1.236-2.757,2.757c0,1.521,1.235,2.757,2.757,2.757c2.267-0.002,11.056-0.627,14.945,3.405
			c4.052,4.202,2.084,10.993-0.539,12.881c-5.185,3.732-9.893,1.906-17.917-0.902c-1.715-0.624-3.616,0.262-4.24,1.977
			c-0.624,1.715,0.262,3.616,1.977,4.24c3.389,1.311,11.516,4.654,20.208,1.463c7.986-2.932,10.651-10.643,9.917-15.031
			c-1.51-9.019-6.808-10.225-12.107-11.432c4.801-1.528,9.603-3.057,9.637-13.798c0.015-4.57-3.514-10.927-12.787-11.327
			C505.018,218.111,501.398,220.817,499.111,221.88z"/>
		<path fill="#231F20" d="M566.186,213.42c-1.825,0-3.308,1.483-3.308,3.308c0,3.198,0.001,12.092,0.003,20.986
			c-4.444-3.931-8.887-7.862-16.535-5.067c-7.049,2.576-8.204,8.758-9.359,14.941c-0.362,2.566-0.389,5.367,0,7.885
			c1.155,6.182,2.31,12.365,9.359,14.941c7.648,2.795,12.092-1.136,16.535-5.066c-0.001,0.792-0.002,1.917-0.003,2.709
			c0,1.825,1.483,3.308,3.308,3.308s3.308-1.483,3.308-3.308c0-3.094,0-48.131,0-51.329
			C569.494,214.903,568.011,213.42,566.186,213.42z M562.881,258.698c-3.792,4.173-7.585,8.345-12.606,6.489
			c-4.615-1.706-5.644-6.121-6.672-10.536c-0.421-2.042-0.382-3.948,0-6.238c1.029-4.415,2.057-8.83,6.672-10.536
			c5.021-1.856,8.814,2.316,12.606,6.489C562.881,249.187,562.881,253.875,562.881,258.698z"/>
		<path fill="#231F20" d="M477.058,232.521c-8.149-1.7-12.686,0.751-16.924,2.566c-1.429,0.52-2.168,2.104-1.648,3.533
			c0.52,1.429,2.104,2.168,3.533,1.648c3.539-1.466,6.782-3.385,11.064-2.846c4.282,0.539,6.064,3.339,6.163,6.675
			c0,1.467,0,2.934,0,4.401c-2.191-0.009-4.382-0.018-6.573-0.003c-2.881,0.151-8.641,0.217-13.173,4.362
			c-5.105,4.668-3.059,13.051,0.407,15.606c2.66,1.96,6.503,3.743,11.688,2.606c3.759-0.824,5.433-2.246,7.65-4.104
			c0,0.361,0,0.721,0,1.082c0,1.825,1.483,3.308,3.308,3.308c1.825,0,3.308-1.483,3.308-3.308c0-7.983,0-15.967,0-23.95
			C485.831,241.333,485.207,234.221,477.058,232.521z M479.245,260.945c-2.403,2.332-4.113,5.169-9.73,5.21
			c-5.023,0.037-6.923-4.193-6.054-7.793c0.923-3.824,4.612-5.094,9.175-5.068c2.203-0.006,4.406-0.012,6.609-0.018
			C479.245,255.832,479.245,258.388,479.245,260.945z"/>
	</g>
</g>
<g id="Calque_5">
	<g>
		<path d="M184.675,244.471c-0.962,3.302-1.741,5.549-2.252,7.857c-0.486,2.198-0.692,4.461-1.021,6.696
			c-1.816-0.932-3.633-1.865-6.518-3.346c-0.491,0.979-1.558,2.73-2.267,4.628c-0.794,2.125-1.265,4.384-1.876,6.584
			c-1.697-1.201-3.394-2.403-5.904-4.18c-0.527,0.856-1.379,2.181-2.172,3.545c-0.882,1.516-1.71,3.067-2.561,4.603
			c-1.325-0.975-2.649-1.95-4.598-3.385c-2.661,3.968-7.02,10.686-12.967,3.664c-0.423,5.581,0.177,7.305-3.991,8.971
			c-3.836,2.075-8.537-1.222-10.709,5.398c13.926,5.81,28.671,4.481,42.948,2.774c24.73-2.956,47.25-12.447,65.141-33.802
			c-17.029-0.98-30.508-7.889-40.549-22.035c-2.787,3.813-3.108,7.619-3.083,12.053c0.008,1.407-0.263,3.708-0.465,5.619
			c-1.497-0.65-3.073-1.154-4.461-2.007C186.626,247.649,186.204,246.591,184.675,244.471z"/>
		<path d="M334.643,259.046c-3.686,2.711-7.452,4.62-10.158,7.64c-6.698,7.474-10.326,9-18.893,4.944
			c-8.249-3.905-16.524-7.552-23.169-14.888c-4.884-5.391-11.708-8.72-18.521-13.576c5.559-4.44,11.122-11.056,17.915-13.697
			c6.726-2.614,14.694-1.218,22.117-1.58c0.008,0.459,0.015,0.918,0.023,1.377c-1.086,0.395-2.173,0.79-3.826,1.39
			c2.271,1.464,3.885,3.017,5.781,3.638c8.384,2.747,16.88,5.122,25.265,7.862c2.63,0.859,6.361,1.701,7.333,3.815
			c5.044,10.97,9.727,22.259,8.635,35.202c-0.495,5.86-4.855,11.748-8.927,11.254c-7.441-0.902-14.776-2.637-22.155-4.024
			c2.772-0.629,5.353-0.116,7.956,0.23c2.669,0.355,5.353,0.704,8.043,0.779c8.541,0.238,11.901-3.233,12.264-12.47
			c0.39-9.921-9.347-28.123-17.387-32.393c-1.243-0.66-2.62-1.038-3.935-1.546C329.239,246.56,333.455,251.726,334.643,259.046z
			 M309.085,268.619c3.761,2.995,7.479,2.211,10.564-1.186c2.987-3.288,2.901-7.421,0.449-10.801
			c-1.556-2.145-3.856-4.045-6.21-5.023c-4.499-1.869-9.088,0.675-10.534,5.168c-1.573,4.89,0.731,9.569,5.913,12.005
			L309.085,268.619z M291.024,258.26c2.537,1.79,5.135,3.481,7.716,5.198c0.32-0.996,1.183-2.343,0.87-2.929
			c-1.793-3.352-4.248-5.642-8.66-4.224C290.972,257.3,290.8,258.102,291.024,258.26z M289.72,245.731
			c-0.565,6.529,2.104,8.697,8.59,6.816C295.072,249.977,292.708,248.102,289.72,245.731z M282.118,248.481
			c0.641,4.461,1.864,5.425,6.292,4.957C287.826,248.961,286.505,247.92,282.118,248.481z"/>
		<path d="M206.977,236.597c9.761-14.317,21.121-24.696,33.995-33.233c2.766-1.835,2.368-11.738-0.432-14.136
			c-6.679-5.719-9.965-5.859-17.36-0.661c-10.34,7.268-19.566,15.862-27.189,26.46c-1.791,2.49-2.086,4.509-0.296,6.84
			C199.345,226.625,202.988,231.39,206.977,236.597z"/>
		<path d="M340.698,146.658c4.574,6.922-1.87,5.349-4.417,7.294c1.033,1.347,1.946,2.538,3.662,4.776
			c-3.274,1.108-6.004,2.032-8.703,2.946c0.649,2.038,1.196,3.757,1.744,5.475c-1.802,0.449-3.6,0.925-5.408,1.339
			c-1.427,0.327-2.866,0.579-4.069,0.818c0.672,2.324,1.171,4.048,1.67,5.772c-1.947,0.291-3.895,0.781-5.839,0.817
			c-1.934,0.036-3.863-0.382-5.815-0.604c0.61,2.908,0.999,4.764,1.388,6.621c-2.267-0.01-4.58,0.262-6.789-0.102
			c-2.626-0.432-5.163-1.411-7.789-1.018c6.412,8.141,12.824,16.282,19.592,24.876c7.785-5.43,14.252-13.422,19.746-22.491
			c5.438-8.977,7.564-19.013,8.75-29.336c0.19-1.656-0.031-3.488-0.536-5.047c-0.532-1.642-1.351-3.859-2.568-4.325
			C344.255,144.064,342.467,145.744,340.698,146.658z"/>
		<path d="M209.497,238.423c6.508,2.234,12.412,4.386,18.413,6.194c0.976,0.294,2.595-0.652,3.548-1.51
			c7.015-6.308,13.877-12.819,20.923-19.086c2.28-2.028,2.935-11.161,0.66-13.927c-5.14-6.251-7.744-6.589-14.436-1.87
			C226.354,216.864,215.515,227.887,209.497,238.423z"/>
		<path d="M285.99,199.413c1.924-10.378-8.491-16.633-15.835-16.141c-7.554,0.506-15.109,3.518-22.479,6.103
			c-3.571,1.253-3.287,9.441,0.13,12.128c2.65,2.085,5.273,4.22,8.027,6.135c0.763,0.53,2.042,0.722,2.935,0.446
			C267.612,205.348,276.425,202.481,285.99,199.413z"/>
		<path d="M192.725,192.625c-6.429,7.831-2.731,15.234,0.514,24.404c1.703-2.765,2.677-4.713,3.966-6.377
			c7.956-10.268,17.42-18.619,27.98-25.502c1.971-1.285,3.114-2.394,2.694-5.25c-0.406-2.764-0.712-5.221-3.724-5.421
			c-4.023-0.267-7.536-0.211-11.573-0.301C206.142,180.331,199.165,186.472,192.725,192.625z"/>
		<path d="M230.076,159.764c-2.246-0.702-3.538-2.171-5.786-2.113c-9.487,0.244-18.977,0.821-28.458,1.517
			c-1.329,0.097-2.609,1.525-3.911,2.337c0.401,0.603,0.802,1.206,1.065,1.602c-0.749,0.788-2.45,1.745-2.806,3.085
			c-2.65,9.959-2.82,20.065-2.07,30.797c1.41-2.147,2.683-4.488,4.054-5.784c6.441-6.153,12.885-11.944,19.326-18.097
			c2.557-3.173,3.114-2.113,0.423-7.446c3.034-1.394,6.104-3.504,9.1-4.881"/>
		<path d="M267.334,228.183c5.556-5.247,13.484-7.318,21.9-7.916c1.708-0.121,4.749-0.791,4.845-1.506
			c0.39-2.918,0.76-6.544-0.499-8.815c-2.289-4.13-6.035-7.167-11.091-5.856c-6.947,1.802-13.903,3.689-20.692,6.117
			c-4.728,1.691-5.825,9.327-2.014,12.757C261.936,224.903,264.528,226.276,267.334,228.183z"/>
		<path d="M185.347,205.871c-0.106-8.51-0.208-16.723-0.314-25.309c-11.247-0.116-15.309-9.927-20.403-18.671
			c-3.762-0.023-3.705,3.131-3.944,5.665C159.216,183.153,171.118,201.658,185.347,205.871z"/>
		<path d="M270.019,179.961c-2.654-7.424-9.864-13.004-17.644-12.049c-6.51,0.799-12.94,3.307-19.228,5.656
			c-1.56,0.583-3.173,3.421-3.348,5.333c-0.107,1.161,2.444,2.608,3.89,3.8c7.109,5.86,14.28,4.636,22.118,0.559
			C259.986,181.086,265.066,181.032,270.019,179.961z"/>
		<path d="M288.135,191.147c0.015,11.686,4.517,17.304,13.718,18.747c2.651,0.416,5.284,1.011,7.876,1.717
			c2.394,0.652,4.723,1.564,7.152,2.385c0.521-8.211-2.694-15.171-9.061-17.545C301.567,194.12,294.927,192.925,288.135,191.147z"/>
		<path d="M269.941,172.587c1.533,3.02,2.51,6.69,4.731,8.904c3.16,3.149,7.215,5.258,10.929,7.742
			c0.892,0.597,1.903,1.145,2.929,1.333c6.918,1.272,13.854,2.441,20.59,3.609c-4.776-8.184-12.531-13.109-20.669-17.526
			C282.281,175.295,276.111,173.941,269.941,172.587z"/>
		<path d="M231.197,160.016c-3.419,0.499-6.839,0.998-10.258,1.498c-2.087,1.458-4.174,2.916-6.459,4.513
			c0.048,3.651,1.769,4.807,5.174,5.975c6.422,2.202,11.815,1.181,17.714-2.235c3.676-2.128,8.191-2.494,12.872-3.802
			c-1.43-1.388-2.688-2.609-3.946-3.83C241.261,161.428,236.229,160.722,231.197,160.016z"/>
		<path d="M263.838,232.798c-5.595-8.243-7.211-8.831-14.364-3.194c-5.603,4.416-10.63,9.704-15.493,15.235
			C245.972,246.704,254.997,240.687,263.838,232.798z"/>
		<path d="M238.733,157.001c-3.515-9.395-23.042-16.286-31.794-10.504c1.74,0.856,3.097,1.368,4.303,2.148
			c3.558,2.3,6.89,5.081,10.636,6.934c2.371,1.173,5.319,1.07,8.021,1.448"/>
		<path d="M269.941,172.587c6.17,1.354,12.34,2.708,18.509,4.062c-1.019-1.208-1.821-3.019-3.093-3.526
			c-8.636-3.443-17.372-6.607-26.073-9.87c-1.96-0.735-3.908-1.504-5.872-2.243c-0.011,0.015,0.076-0.103,0.076-0.103
			c-1.11,0.793-2.221,1.586-4.189,2.992C256.545,166.949,263.243,169.768,269.941,172.587z"/>
		<path d="M316.953,215.829c-6.671-1.733-12.799-3.324-19.467-5.056c-0.256,3.802-0.434,6.444-0.608,9.026
			C306.259,223.897,313.483,222.853,316.953,215.829z"/>
		<path d="M234.092,157.3c-1.031,0.776-2.047,1.56-3.064,2.344c0,0,1.797,0.059,1.797,0.059c5.032,0.706,8.536,1.47,13.568,2.176
			c2.392-0.401,4.684-0.547,7.085-0.96c0.009-0.012-0.078,0.105-0.067,0.091"/>
		<path d="M304.841,257.781c-1.275,3.442,0.946,7.564,4.96,9.208c4.014,1.644,8.301,0.186,9.576-3.256
			c1.275-3.442-0.946-7.564-4.96-9.208C310.404,252.882,306.116,254.339,304.841,257.781z"/>
	</g>
</g>
</svg>
